<svg width="789" height="256" viewBox="0 0 789 256" fill="none" xmlns="http://www.w3.org/2000/svg">
<path d="M564.384 28.319C553.838 30.6536 543.215 34.2841 535.3 41.5068C525.454 50.4736 521.078 63.6888 513.693 74.6841C511.833 77.4179 509.673 80.1517 506.675 81.688C502.299 83.9133 497.081 83.208 492.18 82.7542C468.883 80.5672 442.096 81.1139 423.356 94.9196C392.434 117.708 411.322 142.313 396.465 160.684C390.842 167.633 359.816 172.767 365.062 208.088C373.223 263.239 436.856 236.628 444.695 240.428C475.327 255.267 513.732 261.063 546.191 250.817C568.147 243.878 594.135 237.481 616.912 233.867C643.94 229.559 647.96 225.228 675.349 225.578C712.72 226.06 782.621 200.11 787.746 162.406C792.341 128.638 780.756 107.73 758.755 88.096C737.422 69.0689 707.928 75.1269 696.868 69.6594C668.971 55.892 664.108 32.5345 613.007 26.1374C596.793 24.0869 580.348 24.8247 564.384 28.319Z" fill="url(#paint0_linear_837_4)"/>
<path d="M702.449 1.2196C698.522 2.07876 694.566 3.41479 691.618 6.07276C687.951 9.37259 686.322 14.2358 683.572 18.2821C682.879 19.2882 682.075 20.2942 680.958 20.8596C679.329 21.6785 677.385 21.419 675.56 21.252C666.884 20.4471 656.909 20.6483 649.93 25.7289C638.415 34.1153 645.449 43.1697 639.916 49.9303C637.822 52.4877 626.268 54.377 628.221 67.3751C631.261 87.6711 654.958 77.8782 657.877 79.2766C669.284 84.7374 683.586 86.8702 695.674 83.0996C703.85 80.5462 713.528 78.1921 722.011 76.8621C732.076 75.2766 733.573 73.683 743.772 73.8118C757.689 73.9888 783.72 64.4395 785.629 50.5641C787.34 38.1374 783.026 30.4432 774.833 23.2178C766.888 16.2157 755.905 18.4451 751.786 16.433C741.397 11.3666 739.586 2.77092 720.556 0.416776C714.518 -0.337821 708.394 -0.0662939 702.449 1.2196Z" fill="url(#paint1_linear_837_4)"/>
<path opacity="0.2" d="M123.68 18.8088C117.253 20.6645 110.83 23.3247 106.221 28.101C100.486 34.0314 98.2979 42.3761 94.1637 49.4651C93.1211 51.2286 91.8926 53.0038 90.1001 54.0711C87.4826 55.6183 84.2301 55.3858 81.1834 55.2964C66.7004 54.853 50.1674 56.2368 39.125 65.5074C20.9053 80.8097 33.5394 95.2905 25.0756 107.233C21.8719 111.751 2.89815 116.138 7.5199 137.779C14.7182 171.573 53.0042 152.63 57.9969 154.674C77.5075 162.657 101.468 164.742 121.128 157.138C134.426 151.989 150.237 147.018 164.173 143.894C180.708 140.174 183.023 137.339 199.963 136.486C223.077 135.325 265.263 116.546 266.958 93.0253C268.478 71.96 260.502 59.4802 246.138 48.1949C232.211 37.259 214.22 42.1573 207.171 39.2072C189.392 31.7808 185.475 17.5236 153.644 15.5615C143.544 14.9261 133.409 16.0244 123.68 18.8088Z" fill="url(#paint2_linear_837_4)"/>
<path d="M346.644 12.6292C344.555 13.3363 342.48 14.3084 341.033 15.9502C339.233 17.9889 338.637 20.7696 337.382 23.1659C337.065 23.7622 336.687 24.3652 336.112 24.7435C335.274 25.2921 334.199 25.2641 333.194 25.2802C328.418 25.3506 322.994 26.0534 319.496 29.2713C313.725 34.5829 318.102 39.1629 315.493 43.2223C314.506 44.758 308.323 46.4861 310.168 53.544C313.044 64.5653 325.369 57.7549 327.044 58.3535C333.588 60.6908 341.51 61.0196 347.871 58.2215C352.173 56.3273 357.306 54.454 361.848 53.2168C367.238 51.7447 367.958 50.7764 373.524 50.2425C381.118 49.5147 394.73 42.7003 394.937 34.9291C395.123 27.9692 392.31 23.9786 387.411 20.4767C382.661 17.0835 376.809 18.9654 374.444 18.0992C368.478 15.9192 366.975 11.2826 356.463 11.1121C353.127 11.0538 349.806 11.5669 346.644 12.6292V12.6292Z" fill="url(#paint3_linear_837_4)"/>
<defs>
<linearGradient id="paint0_linear_837_4" x1="663" y1="-1.99901" x2="621" y2="112.001" gradientUnits="userSpaceOnUse">
<stop stop-color="#285146"/>
<stop offset="1" stop-color="#1A2E28" stop-opacity="0"/>
</linearGradient>
<linearGradient id="paint1_linear_837_4" x1="739.174" y1="-9.93753" x2="723.857" y2="32.1329" gradientUnits="userSpaceOnUse">
<stop stop-color="#285146"/>
<stop offset="1" stop-color="#1A2E28" stop-opacity="0"/>
</linearGradient>
<linearGradient id="paint2_linear_837_4" x1="203.5" y1="-80.499" x2="175" y2="81.501" gradientUnits="userSpaceOnUse">
<stop stop-color="white"/>
<stop offset="1" stop-color="white" stop-opacity="0"/>
</linearGradient>
<linearGradient id="paint3_linear_837_4" x1="396.739" y1="-19.2166" x2="378.591" y2="72.5305" gradientUnits="userSpaceOnUse">
<stop stop-color="#191E1D"/>
<stop offset="1" stop-color="#B7B7B7" stop-opacity="0"/>
</linearGradient>
</defs>
</svg>
