<svg width="390" height="267" viewBox="0 0 390 267" fill="none" xmlns="http://www.w3.org/2000/svg">
<path d="M0 218.431C0 214.937 1.03616 211.521 2.97745 208.615C4.91874 205.71 7.67796 203.446 10.9062 202.109C14.1344 200.771 17.6867 200.421 21.1138 201.103C24.5409 201.785 27.6889 203.467 30.1596 205.938C32.6304 208.409 34.3131 211.557 34.9948 214.984C35.6765 218.411 35.3266 221.963 33.9894 225.192C32.6522 228.42 30.3878 231.179 27.4824 233.12C24.5771 235.062 21.1614 236.098 17.6671 236.098C12.9815 236.098 8.48781 234.237 5.17459 230.923C1.86136 227.61 0 223.116 0 218.431Z" fill="#FFEB85"/>
<path d="M19.76 222.635C19.7745 222.305 19.7272 221.975 19.6205 221.662C19.5173 221.376 19.351 221.118 19.134 220.906C18.8694 220.654 18.5701 220.441 18.2453 220.273C17.8154 220.05 17.3699 219.858 16.9122 219.699C16.0105 219.375 15.1899 219.022 14.4537 218.661C13.7721 218.337 13.1372 217.922 12.566 217.429C12.0564 216.977 11.6457 216.425 11.3594 215.807C10.8088 214.468 10.8088 212.966 11.3594 211.626C11.6237 211.032 12.0105 210.501 12.4946 210.066C13.0092 209.612 13.5999 209.252 14.2396 209.002C14.9668 208.722 15.7322 208.552 16.51 208.5L16.5489 205.736L18.7739 205.769L18.7318 208.571C19.4826 208.667 20.2124 208.886 20.8919 209.22C21.509 209.533 22.0597 209.962 22.5137 210.485C22.9717 211.016 23.3191 211.634 23.5353 212.301C23.777 213.055 23.8867 213.845 23.8597 214.636L19.8443 214.578C19.8594 213.542 19.6432 212.766 19.1956 212.249C18.9668 211.991 18.6841 211.786 18.3675 211.649C18.0509 211.511 17.708 211.445 17.3631 211.455C16.9974 211.441 16.6325 211.495 16.2862 211.613C16.0039 211.712 15.7469 211.871 15.5337 212.081C15.3348 212.281 15.184 212.524 15.0926 212.791C14.9942 213.077 14.9427 213.377 14.9402 213.68C14.9333 213.973 14.9761 214.266 15.0667 214.546C15.1656 214.82 15.3266 215.067 15.537 215.269C15.8015 215.528 16.1032 215.747 16.4322 215.918C16.8819 216.153 17.3455 216.361 17.8204 216.54C18.7123 216.887 19.5264 217.244 20.2562 217.607C20.9368 217.935 21.5688 218.355 22.1342 218.856C22.6447 219.307 23.0556 219.859 23.3407 220.478C23.6382 221.162 23.7779 221.905 23.7494 222.651C23.7491 223.351 23.6033 224.044 23.3213 224.685C23.0555 225.276 22.6662 225.803 22.1796 226.232C21.6622 226.681 21.0662 227.031 20.4216 227.263C19.6912 227.53 18.9269 227.692 18.1512 227.746L18.1155 230.315L15.9035 230.283L15.9424 227.727C15.1825 227.641 14.4362 227.462 13.7206 227.192C13.0216 226.933 12.3777 226.545 11.8232 226.047C11.2617 225.528 10.8191 224.894 10.5258 224.188C10.1856 223.342 10.0286 222.433 10.0653 221.522L14.0807 221.581C14.0591 222.103 14.1395 222.624 14.3174 223.115C14.4618 223.487 14.6918 223.821 14.9888 224.088C15.2695 224.335 15.6019 224.517 15.9619 224.62C16.325 224.723 16.7001 224.779 17.0776 224.785C17.4672 224.798 17.8561 224.746 18.2291 224.633C18.5339 224.539 18.8172 224.386 19.0626 224.182C19.2824 223.99 19.4565 223.752 19.5718 223.485C19.6877 223.216 19.7515 222.927 19.76 222.635Z" fill="white"/>
<path d="M69.8807 185.017C82.7554 184.58 92.8389 173.79 92.4028 160.915C91.9667 148.041 81.1762 137.957 68.3015 138.393C55.4268 138.829 45.3433 149.62 45.7794 162.494C46.2155 175.369 57.006 185.453 69.8807 185.017Z" fill="#FFEB85"/>
<path d="M71.859 167.249C71.8737 166.82 71.8118 166.392 71.6762 165.984C71.5406 165.606 71.3209 165.263 71.0338 164.982C70.6846 164.65 70.2894 164.369 69.8602 164.149C69.2932 163.853 68.7054 163.599 68.1014 163.389C66.9964 162.989 65.9128 162.533 64.8549 162.021C63.9542 161.594 63.1165 161.046 62.365 160.391C61.691 159.798 61.1483 159.07 60.7718 158.255C60.0483 156.483 60.0544 154.497 60.7889 152.73C61.1383 151.948 61.648 151.247 62.2851 150.674C62.9641 150.071 63.7454 149.595 64.5922 149.267C65.5493 148.895 66.5573 148.672 67.5817 148.604L67.6359 144.955L70.5712 144.998L70.517 148.71C71.5105 148.843 72.4752 149.139 73.3723 149.586C74.2004 149.994 74.938 150.564 75.5413 151.263C76.1447 151.961 76.6014 152.774 76.8843 153.652C77.2048 154.648 77.3535 155.691 77.324 156.736L72.0217 156.659C72.0427 155.298 71.7571 154.274 71.1651 153.587C70.864 153.245 70.4915 152.975 70.0741 152.794C69.6566 152.613 69.2044 152.526 68.7495 152.539C68.2649 152.52 67.7808 152.59 67.3219 152.747C66.9507 152.878 66.6126 153.089 66.3311 153.364C66.0737 153.63 65.8786 153.95 65.76 154.301C65.6307 154.678 65.5632 155.075 65.5601 155.474C65.5491 155.862 65.6061 156.248 65.7286 156.616C65.8579 156.977 66.069 157.304 66.3453 157.57C66.6973 157.904 67.0954 158.186 67.5274 158.406C68.1216 158.716 68.7337 158.99 69.3606 159.226C70.5389 159.687 71.6115 160.157 72.5785 160.636C73.4765 161.071 74.3112 161.625 75.0598 162.284C75.7328 162.881 76.2752 163.611 76.653 164.428C77.3753 166.212 77.3661 168.208 76.6273 169.985C76.2734 170.763 75.7598 171.459 75.1197 172.026C74.4354 172.62 73.6475 173.083 72.7955 173.391C71.827 173.743 70.814 173.957 69.786 174.028L69.7375 177.42L66.8193 177.377L66.8679 174.002C65.8648 173.889 64.8798 173.651 63.9355 173.294C63.0132 172.954 62.1643 172.442 61.4342 171.784C60.6921 171.1 60.1076 170.263 59.721 169.331C59.2718 168.214 59.0645 167.014 59.1128 165.81L64.4152 165.887C64.3849 166.576 64.4897 167.264 64.7235 167.912C64.9127 168.412 65.218 168.86 65.6144 169.22C65.984 169.546 66.4221 169.785 66.8964 169.919C67.3756 170.058 67.8711 170.132 68.3698 170.139C68.8835 170.154 69.3963 170.086 69.8888 169.939C70.2914 169.814 70.6651 169.61 70.9881 169.339C71.2809 169.089 71.5115 168.775 71.6619 168.42C71.804 168.047 71.8709 167.649 71.859 167.249Z" fill="white"/>
<g opacity="0.17">
<path d="M244.243 263.071C324.6 263.071 389.743 259.937 389.743 256.071C389.743 252.205 324.6 249.071 244.243 249.071C163.885 249.071 98.7427 252.205 98.7427 256.071C98.7427 259.937 163.885 263.071 244.243 263.071Z" fill="#828282"/>
</g>
<path d="M314.488 47.6514L304.601 66.3919L299.533 64.5493L301.178 69.549L291.275 99.3833C291.275 99.3833 285.808 61.4776 314.488 47.6514Z" fill="#233862"/>
<path d="M298.01 64.2217C298.01 64.2217 287.09 104.487 286.036 142.912C286.036 142.912 295.096 146.071 309.329 143.57C323.634 141.058 298.01 64.2217 298.01 64.2217Z" fill="#9296F0"/>
<path d="M245.71 120.056C248.631 120.002 252.768 120.364 254.132 118.872C255.678 117.182 257.502 117.429 257.502 117.429L257.134 115.497L256.684 113.187C256.684 113.187 256.518 112.978 255.918 112.984C255.918 112.984 253.795 113.077 252.772 112.715C250.3 111.832 240.483 117.717 240.813 119.35C240.95 119.962 244.463 120.081 245.71 120.056Z" fill="#E2915A"/>
<path d="M299.243 63.4307C299.243 63.4307 282.651 97.7029 277.516 101.381C272.382 105.06 254.077 113.014 254.077 113.014C254.077 113.014 253.599 114.154 254.041 115.823C254.504 117.56 255.419 118.052 255.419 118.052C255.419 118.052 281.011 115.767 286.959 112.071C292.907 108.374 306.029 93.6042 306.029 93.6042L299.243 63.4307Z" fill="#7D81CE"/>
<path d="M347.807 255.581H357.627C358.863 254.907 359.966 253.375 360.323 251.087C360.802 247.923 364.348 246.198 365.114 243.611C365.88 241.025 361.95 237.382 361.95 237.382L361.294 236.535L360.62 235.654L354.104 237.189C354.104 237.189 353.942 238.742 353.845 240.719C353.759 242.225 353.749 243.734 353.816 245.24C354.007 248.69 352.852 252.406 349.785 253.078C347.499 253.57 347.601 254.914 347.807 255.581Z" fill="#233862"/>
<path d="M290.817 255.581H313.274C314.355 254.264 313.948 249.399 313.793 247.811C313.759 247.492 313.735 247.305 313.735 247.305C313.735 247.305 306.068 241.171 305.014 245.869C304.982 246.015 304.942 246.159 304.899 246.303C303.573 250.696 297.621 252.691 294.183 253.249C291.947 253.61 291.122 254.772 290.817 255.581Z" fill="#233862"/>
<path d="M295.095 130.229C295.095 130.229 296.259 144.756 297.628 162.221C299.488 185.943 301.726 215.083 301.947 220.604C302.329 230.19 303.866 245.524 303.866 245.524C303.866 245.524 307.506 249.166 314.791 247.632C314.791 247.632 321.283 225.743 323.136 202.582L323.224 201.439C324.947 177.862 327.63 128.216 327.63 128.216L295.095 130.229Z" fill="#F99746"/>
<path d="M295.095 130.229C295.095 130.229 296.259 144.756 297.628 162.221L323.136 202.582L323.224 201.439C324.947 177.862 327.63 128.216 327.63 128.216L295.095 130.229Z" fill="#ED7D2B"/>
<path d="M300.415 131.952C300.415 131.952 321.402 184.569 335.204 209.296C349.005 234.023 353.317 240.923 353.317 240.923C353.317 240.923 361.225 237.759 361.944 235.602C361.944 235.602 356.665 187.868 347.423 176.23C342.201 169.655 336.066 149.922 335.779 143.023C335.491 136.125 333.909 122.465 333.909 122.465L300.415 131.952Z" fill="#F99C46"/>
<path d="M305.638 55.2509C313.84 57.8372 328.03 50.8534 328.03 50.8534C328.03 50.8534 320.469 45.1773 320.864 33.3779L314.523 38.4878L310.215 41.9617C310.275 43.847 310.438 45.7276 310.703 47.5951C310.791 48.249 310.892 48.9546 311.011 49.7096C311.059 50.0039 311.019 50.3059 310.897 50.5778C310.774 50.8496 310.574 51.0791 310.321 51.2376C308.556 52.317 306.975 53.6719 305.638 55.2509Z" fill="#FFB27D"/>
<path d="M294.189 131.437C294.429 131.646 294.735 131.762 295.052 131.766C298.133 131.725 307.115 133.435 314.714 132.664C321.12 132.049 326.79 130.15 332.879 127.422C333.688 127.058 335.551 126.074 335.508 125.161C335.481 124.17 335.383 122.737 335.259 120.928C334.828 114.636 334.077 103.832 334.81 91.3588C334.942 89.0376 335.01 86.7321 335.019 84.4648C335.081 67.5602 331.729 52.6913 324.994 47.6602C324.994 47.6602 320.298 50.2937 317.047 51.3341C313.862 52.352 312.222 52.1476 310.57 51.051C310.57 51.051 307.353 52.6486 305.977 54.1474C302.796 57.6169 300.31 62.2234 298.668 68.8343C297.27 74.4519 295.971 82.6649 295.522 93.179C295.306 97.9337 293.985 131.273 294.189 131.437Z" fill="white"/>
<path d="M334.023 75.5824L324.994 47.6514C324.994 47.6514 303.317 55.8262 302.315 86.4312C301.919 93.3971 300.248 121.989 303.274 145.675C303.274 145.675 320.161 152.254 340.865 139.271L334.023 75.5824Z" fill="#9296F0"/>
<path d="M310.216 41.9619C310.276 43.8471 310.439 45.7277 310.704 47.5952C315.479 46.7751 320.892 39.0564 320.892 39.0564C318.463 38.3553 316.335 38.2272 314.524 38.4856L310.216 41.9619Z" fill="#ED975D"/>
<path d="M306.663 41.7375C306.663 41.7375 321.436 44.1936 322.824 34.9694C324.213 25.7452 327.051 19.8511 317.679 17.8917C308.306 15.9322 305.938 19.177 304.727 22.1431C303.515 25.1092 302.857 40.8634 306.663 41.7375Z" fill="#FFB27D"/>
<path d="M371.486 161.056L341.324 165.352C339.432 165.617 337.512 165.122 335.984 163.975C334.456 162.829 333.444 161.124 333.169 159.233L331.306 146.162C331.042 144.27 331.538 142.35 332.685 140.822C333.832 139.295 335.537 138.283 337.427 138.008L367.59 133.709C369.482 133.445 371.401 133.941 372.929 135.088C374.457 136.234 375.469 137.939 375.744 139.83L377.607 152.901C377.871 154.793 377.375 156.713 376.228 158.241C375.081 159.769 373.376 160.781 371.486 161.056Z" fill="#233862"/>
<path d="M335.282 145.59L337.168 158.812C337.345 160.031 337.83 161.185 338.577 162.165C339.324 163.145 340.308 163.918 341.437 164.412C342.181 164.743 342.976 164.944 343.788 165.005C344.312 165.047 344.84 165.03 345.361 164.956L375.471 160.664C377.369 160.388 379.08 159.373 380.231 157.839C381.382 156.306 381.88 154.379 381.615 152.48L379.732 139.256C379.455 137.359 378.439 135.648 376.905 134.497C375.371 133.346 373.445 132.849 371.546 133.115L361.18 134.591L360.778 131.771C360.686 131.146 360.352 130.583 359.846 130.204C359.341 129.825 358.707 129.661 358.081 129.749L356.944 129.91L350.639 130.809L349.066 131.034C348.441 131.124 347.876 131.459 347.497 131.964C347.118 132.47 346.955 133.105 347.044 133.73L347.446 136.553L341.439 137.407C341.205 137.44 340.973 137.485 340.743 137.541C339.623 137.819 338.586 138.36 337.716 139.119C336.847 139.878 336.172 140.833 335.745 141.905C335.27 143.072 335.111 144.343 335.282 145.59ZM359.686 134.804L348.913 136.341L348.511 133.519C348.48 133.286 348.542 133.049 348.684 132.861C348.825 132.673 349.035 132.548 349.268 132.512L351.965 132.126L356.928 131.418L358.277 131.227C358.365 131.215 358.455 131.215 358.544 131.227C358.731 131.258 358.904 131.348 359.037 131.483C359.17 131.618 359.257 131.792 359.286 131.98L359.686 134.804Z" fill="#2B478B"/>
<path d="M348.551 122.137C348.551 122.137 350.135 124.247 350.198 125.09C350.623 130.804 348.012 131.606 354.773 134.768C354.773 134.768 357.659 135.869 357.708 133.628C357.758 131.388 355.704 131.352 356.079 128.215C356.513 124.598 356.47 124.564 354.095 122.674L352.522 120.074L348.551 122.137Z" fill="#FFB27D"/>
<path d="M352.573 123.755C350.821 124.055 349.04 124.154 347.266 124.049C347.266 124.049 339.706 100.693 338.727 98.5609C337.747 96.4284 316.281 71.1736 316.281 71.1736L324.995 47.6514C324.995 47.6514 330.105 50.6422 335.509 59.9653C342.185 71.4837 349.524 90.031 350.827 93.0443C354.726 102.057 356.079 122.256 356.079 122.256C355.02 122.982 353.829 123.491 352.573 123.755Z" fill="#888CD9"/>
<path d="M322.835 34.0836C322.835 34.0836 321.318 33.8297 321.563 31.7422C321.808 29.6547 321.805 26.9245 320.107 27.4323C318.408 27.9402 318.325 29.3019 317.635 28.5064C316.945 27.711 316.925 24.3696 311.873 24.1359C306.822 23.9022 304.77 25.6616 302.42 24.628C300.07 23.5943 299.948 20.0417 299.948 20.0417C299.948 20.0417 300.622 21.3113 301.625 21.7135C301.625 21.7135 297.706 16.3543 302.242 12.6781C306.779 9.0019 311.406 11.4085 314.033 11.568C319.819 11.9186 323.556 12.2646 325.446 16.0622C327.335 19.8597 326.547 30.4232 322.835 34.0836Z" fill="#2B478B"/>
<path d="M351.049 124.653C351.049 124.653 349.523 126.244 349.427 126.9C349.119 129.024 348.409 129.941 348.752 130.172C349.492 130.653 350.469 129.08 350.937 127.669C351.404 126.258 351.049 124.653 351.049 124.653Z" fill="#FFB27D"/>
<path d="M324.995 47.6514L315.108 66.3919L310.043 64.5493L311.688 69.549L301.789 99.3833C301.789 99.3833 296.316 61.4776 324.995 47.6514Z" fill="#E1E8F5"/>
<path d="M179.558 175.977L211.12 168.647C213.098 168.183 214.811 166.954 215.886 165.231C216.961 163.507 217.311 161.428 216.859 159.447L213.688 145.769C213.224 143.792 211.996 142.079 210.273 141.003C208.549 139.928 206.471 139.579 204.491 140.031L172.928 147.344C170.951 147.809 169.237 149.037 168.162 150.761C167.087 152.484 166.737 154.563 167.19 156.544L170.36 170.222C170.82 172.203 172.047 173.921 173.77 174.999C175.494 176.078 177.575 176.429 179.558 175.977Z" fill="#F99746"/>
<path d="M207.673 143.251C206.84 142.353 205.805 141.665 204.654 141.246C203.503 140.827 202.269 140.687 201.053 140.84C200.803 140.87 200.555 140.914 200.31 140.972L194.026 142.428L193.343 139.478C193.188 138.823 192.78 138.257 192.209 137.903C191.638 137.548 190.95 137.434 190.295 137.586L188.656 137.964L182.057 139.492L180.875 139.769C180.221 139.924 179.655 140.331 179.301 140.902C178.946 141.473 178.832 142.161 178.983 142.816L179.669 145.767L168.821 148.28C166.836 148.746 165.116 149.979 164.036 151.709C162.957 153.439 162.606 155.525 163.059 157.513L166.268 171.35C166.734 173.332 167.965 175.049 169.693 176.128C171.42 177.206 173.503 177.558 175.489 177.107L206.964 169.804C207.509 169.679 208.038 169.494 208.541 169.25C209.323 168.877 210.035 168.373 210.645 167.758C211.573 166.835 212.25 165.691 212.613 164.433C212.976 163.175 213.012 161.846 212.719 160.571L209.515 146.734C209.216 145.432 208.581 144.231 207.673 143.251ZM180.499 142.452C180.471 142.331 180.467 142.205 180.487 142.082C180.507 141.959 180.552 141.842 180.617 141.736C180.683 141.63 180.77 141.539 180.871 141.467C180.972 141.394 181.087 141.343 181.208 141.315L182.61 140.984L187.812 139.783L190.649 139.125C190.771 139.097 190.896 139.093 191.019 139.113C191.142 139.134 191.26 139.178 191.365 139.244C191.471 139.31 191.563 139.396 191.635 139.497C191.707 139.599 191.759 139.713 191.787 139.835L192.47 142.786L181.197 145.386L180.499 142.452Z" fill="#ED7D2B"/>
<path d="M186.977 125.449C186.977 125.449 186.032 128.83 186.351 129.908C188.569 137.207 192.401 141.983 182.095 140.751C182.095 140.751 182.52 140.328 180.548 136.614C178.272 132.329 178.309 132.268 180.35 128.78L181.059 124.799L186.977 125.449Z" fill="#FFB27D"/>
<path d="M199.944 116.758C196.833 116.571 193.04 115.755 191.669 114.112C190.101 112.247 188.536 111.748 188.536 111.748L189.009 109.71L189.581 107.277C189.581 107.277 189.768 107.062 190.406 107.097C190.406 107.097 192.846 107.648 193.752 106.948C194.658 106.248 196.315 106.674 197.334 107.352C198.632 108.213 200.384 108.062 200.339 108.497C200.339 108.497 197.769 109.759 198.008 109.972C200.372 112.065 206.567 112.895 206.165 114.528C206 115.169 201.271 116.838 199.944 116.758Z" fill="#FFB27D"/>
<path d="M156.583 37.2686V38.9592C156.583 38.9592 157.045 44.2484 150.531 45.0215C144.017 45.7947 138.678 45.693 138.853 41.612C139.439 38.4508 140.491 33.5447 140.534 30.9297C140.547 29.8695 140.468 28.8102 140.297 27.7637L152.919 27.5107L156.638 28.1184L156.583 37.2686Z" fill="#FFB27D"/>
<path d="M156.633 28.1184L156.583 37.2686C155.159 37.9329 153.606 38.2752 152.034 38.2711C146.234 38.2711 142.484 34.0152 140.524 30.9297C140.537 29.8695 140.458 28.8102 140.288 27.7637L152.909 27.5107L156.633 28.1184Z" fill="#E2915A"/>
<path d="M139.325 25.7325C140.791 33.6131 150.96 33.3553 155.354 32.8588C156.59 32.7217 157.368 32.5633 157.368 32.5633C158.763 32.1921 159.541 29.9955 159.903 27.1251C160.612 21.4317 159.714 13.0735 158.754 10.9361C157.304 7.7181 154.578 4.24007 144.331 6.7487C134.083 9.25734 137.45 15.6341 139.325 25.7325Z" fill="#FFB27D"/>
<path d="M131.005 259.066H145.428C145.176 257.315 144.792 255.586 144.279 253.893C144.059 253.182 143.786 252.489 143.461 251.819C142.061 249.02 133.159 250.8 133.159 250.8C133.159 250.8 132.332 251.51 131.686 254.214C131.322 255.809 131.094 257.433 131.005 259.066Z" fill="#233862"/>
<path d="M174.551 254.519C174.591 256.479 174.837 258.335 175.548 259.066H204.051C203.687 258.035 202.661 256.484 199.736 256.009C196.412 255.472 191.224 253.881 188.203 250.672C187.103 249.553 186.33 248.154 185.968 246.627C184.628 240.657 174.882 248.457 174.882 248.457C174.644 250.469 174.533 252.493 174.551 254.519Z" fill="#233862"/>
<path d="M155.593 189.981C155.933 191.721 156.17 193.479 156.302 195.247C157.21 212.921 171.181 253.333 173.68 254.274C177.546 255.733 183.634 252.633 186.822 251.617C188.141 251.196 189.032 249.865 188.739 248.515C181.818 216.706 179.281 170.903 178.352 143.788C177.879 130.129 175.539 120.692 175.539 120.692C175.539 120.692 141.463 111.601 141.255 123.102C141.087 133.281 152.554 173.194 155.593 189.981Z" fill="#2B478B"/>
<path d="M155.593 189.981L178.355 143.788C177.882 130.129 175.541 120.692 175.541 120.692C175.541 120.692 141.465 111.601 141.257 123.102C141.087 133.281 152.554 173.194 155.593 189.981Z" fill="#233862"/>
<path d="M163.175 123.143L145.161 253.703C145.161 253.703 137.249 255.611 131.097 254.086C131.097 254.086 125.822 184.648 126.262 167.861C126.702 151.073 122.479 122.937 127.227 119.837C131.974 116.738 163.175 123.143 163.175 123.143Z" fill="#2B478B"/>
<path d="M159.146 12.1612C156.333 13.0479 150.384 12.1423 147.896 14.1544C145.409 16.1665 147.778 19.4862 144.934 20.6707C144.654 20.7883 144.343 20.812 144.049 20.7383C143.754 20.6645 143.491 20.4973 143.3 20.2617C142.513 19.2781 141.423 18.2992 140.427 18.7035C139.609 19.0393 139.569 20.0938 139.928 21.12C140.087 21.5431 140.141 21.998 140.088 22.4467C140.035 22.8954 139.876 23.3249 139.623 23.6995C139.386 23.9915 139.275 24.3657 139.314 24.7399C139.55 26.0403 140.195 27.7308 140.432 28.5962L140.498 29.5041C140.498 29.5041 135.736 24.3497 133.731 20.011C132.353 17.0343 132.381 5.90975 139.115 2.65633C139.088 2.63728 139.066 2.61216 139.051 2.58303C138.905 2.32295 138.498 2.38205 138.498 2.38205C139.077 2.12197 139.976 2.28748 139.976 2.28748C139.976 2.28748 139.992 2.23074 140.075 2.16926C140.193 1.38428 140.983 0.821549 140.983 0.821549C140.763 1.14045 140.616 1.50366 140.553 1.88553C142.321 0.93977 147.764 -1.11253 152.081 0.764806C154.462 1.79678 156.947 2.56659 159.494 3.06063C160.216 3.20314 160.864 3.5989 161.321 4.17668C161.778 4.75447 162.014 5.47634 161.986 6.21239C161.908 8.35217 161.163 11.4259 159.146 12.1612Z" fill="#233862"/>
<path d="M137.306 43.8799L141.455 132.869C141.455 132.869 176.07 133.434 175.082 125.601C174.093 117.768 162.605 46.606 162.605 46.606" fill="#E9F3FE"/>
<path d="M148.719 99.6232C148.719 99.6232 146.96 123.393 143.586 138.314C143.586 138.314 123.385 139.385 118.592 131.585C118.592 131.585 122.375 99.479 122.375 92.9651C122.375 90.6764 122.198 87.5648 121.919 84.0868C121.498 78.8165 120.848 72.7116 120.228 67.3964C119.37 59.9911 118.573 54.1061 118.573 54.1061L135.228 40.5723L148.719 99.6232Z" fill="#00C9C8"/>
<path d="M188.801 127.743C188.801 127.743 185.032 130.107 179.107 129.31C176.946 134.609 171.85 136.404 171.85 135.931C171.85 135.874 170.708 125.927 169.356 114.204C169.224 113.032 169.088 111.849 168.949 110.658C168.949 110.556 168.923 110.452 168.914 110.35C168.677 108.388 168.457 106.402 168.228 104.423C166.604 90.3072 165.041 76.7734 165.041 76.7734C161.494 55.0895 158.501 40.7588 158.501 40.7588C166.067 41.5461 171.155 44.2368 173.191 47.7622C179.223 58.2152 183.594 84.3631 186.148 103.936C186.148 103.985 186.148 104.037 186.167 104.087C186.609 107.466 186.997 110.646 187.325 113.514C187.347 113.694 187.368 113.871 187.387 114.044C188.318 122.236 188.801 127.743 188.801 127.743Z" fill="#00C9C8"/>
<path d="M153.765 27.0189C153.765 27.0189 154.096 28.0356 156.662 27.6644C156.662 27.6644 158.816 27.3523 158.655 26.2197C158.645 26.2292 156.479 25.6003 153.765 27.0189Z" fill="white"/>
<path d="M136.327 40.4653C136.284 39.6142 140.306 38.4414 140.306 38.4414C140.306 38.4414 144.91 44.8253 152.495 44.9364C152.495 44.9364 150.334 49.1427 147.787 50.2327C147.787 50.2327 136.575 45.5086 136.327 40.4653Z" fill="#D9E9F9"/>
<path d="M152.495 44.7877C152.495 44.7877 156.515 42.4044 156.529 39.8224C156.529 39.8224 159.13 39.4961 160.257 40.7682C160.257 40.7682 161.203 45.1943 159.948 47.7645C159.948 47.7526 154.16 46.8802 152.495 44.7877Z" fill="#D9E9F9"/>
<path d="M149.769 44.4052L155.208 43.0977C155.208 43.0977 155.917 43.1591 155.9 44.0434C155.884 44.9277 154.366 47.5238 153.694 47.7319C153.023 47.94 148.481 46.1998 149.769 44.4052Z" fill="#BA4C43"/>
<path d="M136.961 40.0235C136.919 39.1746 139.643 37.4226 139.643 37.4226C139.643 37.4226 144.911 43.5819 152.496 43.6906C152.496 43.6906 150.334 47.8993 147.788 48.9893C147.788 48.994 137.214 45.0691 136.961 40.0235Z" fill="#E9F3FE"/>
<path d="M152.495 43.6954C152.495 43.6954 156.56 41.5414 156.574 38.9666C156.574 38.9666 159.028 40.0447 160.161 41.3049C160.161 41.3049 161.21 44.0973 159.948 46.6698C159.948 46.6627 154.16 45.7808 152.495 43.6954Z" fill="#E9F3FE"/>
<path d="M162.458 118.316C162.283 120.782 161.322 123.127 159.716 125.007L157.276 127.762C157.148 127.923 156.982 128.049 156.793 128.131C156.604 128.212 156.399 128.246 156.194 128.228C155.989 128.211 155.792 128.143 155.619 128.03C155.447 127.918 155.305 127.765 155.207 127.584L152.261 122.962C151.454 121.644 151.098 120.1 151.246 118.562C151.561 115.034 152.147 108.239 152.627 101.68C153.02 96.3648 153.337 91.2033 153.391 88.0657C153.554 78.043 152.242 46.1094 152.242 46.1094L154.2 46.211C154.2 46.211 158.947 58.558 161.333 75.4044C161.922 79.5515 162.364 83.9682 162.56 88.5433C162.56 88.5433 163.404 106.782 162.458 118.316Z" fill="#40717C"/>
<path d="M162.458 118.316C162.283 120.782 161.322 123.127 159.716 125.007L157.276 127.762C157.148 127.923 156.982 128.049 156.793 128.131C156.604 128.212 156.399 128.246 156.194 128.228C155.989 128.21 155.792 128.142 155.619 128.03C155.447 127.918 155.305 127.765 155.207 127.584L152.261 122.962C151.454 121.644 151.098 120.1 151.246 118.562C151.561 115.034 152.147 108.239 152.627 101.68C158.115 94.1564 160.409 83.8239 161.333 75.4043C161.922 79.5515 162.364 83.9682 162.56 88.5433C162.56 88.5433 163.404 106.782 162.458 118.316Z" fill="#2B5660"/>
<path d="M139.642 37.4226C139.642 37.4226 150.429 82.6087 148.712 99.6301C148.712 99.6301 144.745 81.4407 135.2 66.5403C135.2 66.5403 138.685 63.4783 138.496 62.3482C138.496 62.3482 135.909 61.5821 133.4 62.0975C133.4 62.0975 133.677 42.6196 135.242 40.5625C136.808 38.5055 139.642 37.4226 139.642 37.4226Z" fill="#00ADAC"/>
<path d="M156.574 38.959C154.957 39.089 167.266 83.1142 168.178 97.225C168.178 97.225 167.098 72.0441 167.204 64.7854C167.204 64.7854 162.712 62.421 162.712 61.5816C162.712 60.7422 167.493 58.5079 167.493 58.5079C167.493 58.5079 164.466 42.9998 162.814 41.2927C161.161 39.5856 156.574 38.959 156.574 38.959Z" fill="#00ADAC"/>
<path d="M179.104 131.104C179.104 131.104 178.357 132.115 178.832 134.65C179.308 137.185 179.045 138.592 179.703 138.152C180.36 137.712 181.717 134.664 181.717 134.664L179.104 131.104Z" fill="#FFB27D"/>
<path d="M147.401 106.586C134.841 104.711 126.443 92.9742 121.931 84.0864C121.51 78.8161 120.86 72.7113 120.241 67.3961L123.18 59.0095L147.401 106.586Z" fill="#00ADAC"/>
<path d="M187.377 114.029C184.876 114.608 177.288 116.027 169.346 114.199C169.214 113.026 169.078 111.844 168.94 110.653C168.94 110.551 168.914 110.447 168.904 110.345C169.164 109.325 169.425 108.306 169.687 107.288C174.179 108.896 184.226 112.421 187.316 113.509C187.34 113.684 187.358 113.861 187.377 114.029Z" fill="#233862"/>
<path d="M135.242 40.5674C135.242 40.5674 124.205 41.9624 119.164 48.9941C114.123 56.0259 124.945 94.3221 147.395 106.586C158.196 112.497 189.359 113.814 189.359 113.814C189.359 113.814 191.071 113.984 191.752 110.537C191.988 109.334 191.752 107.284 191.752 107.284C191.752 107.284 156.285 93.9816 153.16 91.421C150.034 88.8603 135.242 40.5674 135.242 40.5674Z" fill="#00C9C8"/>
<path d="M205.051 107.378C205.051 107.378 201.341 106.447 200.278 106.222C199.036 105.96 197.899 105.026 197.537 105.466C196.863 106.284 199.703 107.721 200.824 110.249C201.375 111.49 202.479 112.164 204.701 111.254C205.82 110.795 206.709 108.475 205.051 107.378Z" fill="#E2915A"/>
<path d="M129.412 266.196H147.432C147.117 264.246 146.637 262.319 145.996 260.434C145.721 259.642 145.379 258.87 144.974 258.124C143.225 255.006 132.103 256.989 132.103 256.989C132.103 256.989 131.069 257.779 130.263 260.792C129.808 262.568 129.523 264.376 129.412 266.196Z" fill="#031D51"/>
</svg>
