<svg id="cta" xmlns="http://www.w3.org/2000/svg" width="389.743" height="266.196" viewBox="0 0 389.743 266.196">
  <g id="coin-1">
    <path id="Path_1" data-name="Path 1" d="M0,218.431a17.668,17.668,0,1,1,5.175,12.492A17.671,17.671,0,0,1,0,218.431Z" fill="#ffeb85"/>
    <path id="Path_2" data-name="Path 2" d="M19.76,222.635a2.654,2.654,0,0,0-.139-.973,2.01,2.01,0,0,0-.486-.756,3.859,3.859,0,0,0-.889-.633,10.077,10.077,0,0,0-1.333-.574,24.092,24.092,0,0,1-2.459-1.038,8.428,8.428,0,0,1-1.888-1.232,4.948,4.948,0,0,1-1.207-1.622,5.5,5.5,0,0,1,0-4.181,4.625,4.625,0,0,1,1.135-1.56A5.863,5.863,0,0,1,14.24,209a7.761,7.761,0,0,1,2.27-.5l.039-2.764,2.225.033-.042,2.8a6.872,6.872,0,0,1,2.16.649,5.353,5.353,0,0,1,1.622,1.265,5.269,5.269,0,0,1,1.022,1.816,6.881,6.881,0,0,1,.324,2.335l-4.015-.058a3.4,3.4,0,0,0-.649-2.329,2.363,2.363,0,0,0-1.833-.794,2.984,2.984,0,0,0-1.077.158,2.027,2.027,0,0,0-.752.468,1.862,1.862,0,0,0-.441.71,2.8,2.8,0,0,0-.152.889,2.614,2.614,0,0,0,.127.866,1.893,1.893,0,0,0,.47.723,3.756,3.756,0,0,0,.9.649,12.572,12.572,0,0,0,1.388.622c.892.347,1.706.7,2.436,1.067a8.2,8.2,0,0,1,1.878,1.249,4.9,4.9,0,0,1,1.207,1.622,4.973,4.973,0,0,1,.409,2.173,5.058,5.058,0,0,1-.428,2.034,4.551,4.551,0,0,1-1.142,1.547,5.551,5.551,0,0,1-1.758,1.031,8.288,8.288,0,0,1-2.27.483l-.036,2.569-2.212-.032.039-2.556a9.234,9.234,0,0,1-2.222-.535,5.914,5.914,0,0,1-1.9-1.145,5.3,5.3,0,0,1-1.3-1.859,6.451,6.451,0,0,1-.46-2.666l4.015.059a4.016,4.016,0,0,0,.237,1.534,2.478,2.478,0,0,0,1.644,1.5,4.342,4.342,0,0,0,1.116.165,3.562,3.562,0,0,0,1.151-.152,2.418,2.418,0,0,0,.833-.451,1.955,1.955,0,0,0,.509-.7A2.321,2.321,0,0,0,19.76,222.635Z" fill="#fff"/>
  </g>
  <g id="coin-2">
    <path id="Path_3" data-name="Path 3" d="M69.881,185.017a23.325,23.325,0,1,0-24.1-22.523A23.326,23.326,0,0,0,69.881,185.017Z" fill="#ffeb85"/>
    <path id="Path_4" data-name="Path 4" d="M71.859,167.249a3.617,3.617,0,0,0-.183-1.265,2.659,2.659,0,0,0-.642-1,5.042,5.042,0,0,0-1.174-.833,13.086,13.086,0,0,0-1.759-.76,34.073,34.073,0,0,1-3.247-1.368,10.886,10.886,0,0,1-2.49-1.63,6.446,6.446,0,0,1-1.593-2.136,7.252,7.252,0,0,1,.017-5.525,6.128,6.128,0,0,1,1.5-2.056,7.616,7.616,0,0,1,2.307-1.407,10.1,10.1,0,0,1,2.99-.663l.054-3.649,2.935.043-.054,3.712a9.114,9.114,0,0,1,2.855.876,6.89,6.89,0,0,1,3.512,4.066,9.219,9.219,0,0,1,.44,3.084l-5.3-.077a4.486,4.486,0,0,0-.857-3.072,3.1,3.1,0,0,0-2.416-1.048,3.934,3.934,0,0,0-1.428.208,2.709,2.709,0,0,0-.991.617,2.5,2.5,0,0,0-.571.937,3.708,3.708,0,0,0-.2,1.173,3.316,3.316,0,0,0,.169,1.142,2.491,2.491,0,0,0,.617.954,5.044,5.044,0,0,0,1.182.836,16.631,16.631,0,0,0,1.833.82q1.767.691,3.218,1.41a11.035,11.035,0,0,1,2.481,1.648,6.529,6.529,0,0,1,1.593,2.144,7.319,7.319,0,0,1-.026,5.557,6.1,6.1,0,0,1-1.508,2.041,7.367,7.367,0,0,1-2.324,1.365,11.036,11.036,0,0,1-3.009.637l-.049,3.392-2.918-.043L66.868,174a12.133,12.133,0,0,1-2.932-.708,7.728,7.728,0,0,1-2.5-1.51,6.966,6.966,0,0,1-1.713-2.453,8.521,8.521,0,0,1-.608-3.521l5.3.077a5.283,5.283,0,0,0,.308,2.025,3.385,3.385,0,0,0,.891,1.308,3.291,3.291,0,0,0,1.282.7,5.57,5.57,0,0,0,1.473.22,4.82,4.82,0,0,0,1.519-.2,3.175,3.175,0,0,0,1.1-.6,2.48,2.48,0,0,0,.674-.919A3.036,3.036,0,0,0,71.859,167.249Z" fill="#fff"/>
  </g>
  <g id="Group_1" data-name="Group 1" opacity="0.17">
    <path id="Path_5" data-name="Path 5" d="M244.243,263.071c80.357,0,145.5-3.134,145.5-7s-65.143-7-145.5-7-145.5,3.134-145.5,7S163.885,263.071,244.243,263.071Z" fill="#828282"/>
  </g>
  <path id="Path_6" data-name="Path 6" d="M314.488,47.651,304.6,66.392l-5.068-1.843,1.645,5-9.9,29.834S285.808,61.478,314.488,47.651Z" fill="#233862"/>
  <path id="Path_7" data-name="Path 7" d="M298.01,64.222s-10.92,40.265-11.974,78.69c0,0,9.06,3.159,23.293.658C323.634,141.058,298.01,64.222,298.01,64.222Z" fill="#9296f0"/>
  <g id="r-hand">
    <path id="Path_8" data-name="Path 8" d="M245.71,120.056c2.921-.054,7.058.308,8.422-1.184a4.129,4.129,0,0,1,3.37-1.443l-.368-1.932-.45-2.31s-.166-.209-.766-.2a11.451,11.451,0,0,1-3.146-.269c-2.472-.883-12.289,5-11.959,6.635C240.95,119.962,244.463,120.081,245.71,120.056Z" fill="#e2915a"/>
    <path id="Path_9" data-name="Path 9" d="M299.243,63.431s-16.592,34.272-21.727,37.95-23.439,11.633-23.439,11.633a4.687,4.687,0,0,0-.036,2.809,3.5,3.5,0,0,0,1.378,2.229s25.592-2.285,31.54-5.981S306.029,93.6,306.029,93.6Z" fill="#7d81ce"/>
  </g>
  <path id="Path_10" data-name="Path 10" d="M347.807,255.581h9.82a5.984,5.984,0,0,0,2.7-4.494c.479-3.164,4.025-4.889,4.791-7.476s-3.164-6.229-3.164-6.229l-.656-.847-.674-.881-6.516,1.535s-.162,1.553-.259,3.53a44.558,44.558,0,0,0-.029,4.521c.191,3.45-.964,7.166-4.031,7.838C347.5,253.57,347.6,254.914,347.807,255.581Z" fill="#233862"/>
  <path id="Path_11" data-name="Path 11" d="M290.817,255.581h22.457c1.081-1.317.674-6.182.519-7.77-.034-.319-.058-.506-.058-.506s-7.667-6.134-8.721-1.436c-.032.146-.072.29-.115.434-1.326,4.393-7.278,6.388-10.716,6.946C291.947,253.61,291.122,254.772,290.817,255.581Z" fill="#233862"/>
  <path id="Path_12" data-name="Path 12" d="M295.1,130.229s1.164,14.527,2.533,31.992c1.86,23.722,4.1,52.862,4.319,58.383.382,9.586,1.919,24.92,1.919,24.92s3.64,3.642,10.925,2.108a250.779,250.779,0,0,0,8.345-45.05l.088-1.143c1.723-23.577,4.406-73.223,4.406-73.223Z" fill="#f99746"/>
  <path id="Path_13" data-name="Path 13" d="M295.1,130.229s1.164,14.527,2.533,31.992l25.508,40.361.088-1.143c1.723-23.577,4.406-73.223,4.406-73.223Z" fill="#ed7d2b"/>
  <path id="Path_14" data-name="Path 14" d="M300.415,131.952S321.4,184.569,335.2,209.3s18.113,31.627,18.113,31.627,7.908-3.164,8.627-5.321c0,0-5.279-47.734-14.521-59.372-5.222-6.575-11.357-26.308-11.644-33.207s-1.87-20.558-1.87-20.558Z" fill="#f99c46"/>
  <path id="Path_15" data-name="Path 15" d="M305.638,55.251c8.2,2.586,22.392-4.4,22.392-4.4s-7.561-5.676-7.166-17.476l-6.341,5.11-4.308,3.474A51.829,51.829,0,0,0,310.7,47.6c.088.654.189,1.36.308,2.114a1.513,1.513,0,0,1-.69,1.528A19.4,19.4,0,0,0,305.638,55.251Z" fill="#ffb27d"/>
  <path id="Path_16" data-name="Path 16" d="M294.189,131.437a1.34,1.34,0,0,0,.863.329c3.081-.041,12.063,1.669,19.662.9a56.644,56.644,0,0,0,18.165-5.242c.809-.364,2.672-1.348,2.629-2.261-.027-.991-.125-2.424-.249-4.233a226.365,226.365,0,0,1-.449-29.569c.132-2.321.2-4.627.209-6.894.062-16.9-3.29-31.773-10.025-36.8a55.825,55.825,0,0,1-7.947,3.674c-3.185,1.018-4.825.813-6.477-.283a20.149,20.149,0,0,0-4.593,3.1c-3.181,3.47-5.667,8.076-7.309,14.687a125.664,125.664,0,0,0-3.146,24.345C295.306,97.934,293.985,131.273,294.189,131.437Z" fill="#fff"/>
  <path id="Path_17" data-name="Path 17" d="M334.023,75.582l-9.029-27.931s-21.677,8.175-22.679,38.78c-.4,6.966-2.067,35.558.959,59.244,0,0,16.887,6.579,37.591-6.4Z" fill="#9296f0"/>
  <path id="Path_18" data-name="Path 18" d="M310.216,41.962A51.829,51.829,0,0,0,310.7,47.6c4.775-.82,10.188-8.539,10.188-8.539a15.2,15.2,0,0,0-6.368-.571Z" fill="#ed975d"/>
  <path id="Path_19" data-name="Path 19" d="M306.663,41.737s14.773,2.456,16.161-6.768,4.227-15.118-5.145-17.078-11.741,1.285-12.952,4.251S302.857,40.863,306.663,41.737Z" fill="#ffb27d"/>
  <path id="Path_20" data-name="Path 20" d="M371.486,161.056l-30.162,4.3a7.229,7.229,0,0,1-8.155-6.119l-1.863-13.071a7.23,7.23,0,0,1,6.121-8.154l30.163-4.3a7.232,7.232,0,0,1,8.154,6.121l1.863,13.071a7.232,7.232,0,0,1-6.121,8.155Z" fill="#233862"/>
  <path id="Path_21" data-name="Path 21" d="M335.282,145.59l1.886,13.222a7.251,7.251,0,0,0,4.269,5.6,7.212,7.212,0,0,0,3.924.544l30.11-4.292a7.258,7.258,0,0,0,6.144-8.184l-1.883-13.224a7.258,7.258,0,0,0-8.186-6.141l-10.366,1.476-.4-2.82a2.392,2.392,0,0,0-2.7-2.022l-1.137.161-6.3.9-1.573.225a2.385,2.385,0,0,0-2.022,2.7l.4,2.823-6.007.854q-.351.05-.7.134a7.261,7.261,0,0,0-5,4.364A7.185,7.185,0,0,0,335.282,145.59Zm24.4-10.786-10.773,1.537-.4-2.822a.9.9,0,0,1,.757-1.007l2.7-.386,4.963-.708,1.349-.191a.994.994,0,0,1,.267,0,.9.9,0,0,1,.742.753Z" fill="#2b478b"/>
  <path id="Path_22" data-name="Path 22" d="M348.551,122.137s1.584,2.11,1.647,2.953c.425,5.714-2.186,6.516,4.575,9.678,0,0,2.886,1.1,2.935-1.14s-2-2.276-1.629-5.413c.434-3.617.391-3.651-1.984-5.541l-1.573-2.6Z" fill="#ffb27d"/>
  <path id="Path_23" data-name="Path 23" d="M352.573,123.755a23.293,23.293,0,0,1-5.307.294s-7.56-23.356-8.539-25.488-22.446-27.387-22.446-27.387l8.714-23.522s5.11,2.991,10.514,12.314c6.676,11.518,14.015,30.066,15.318,33.079,3.9,9.013,5.252,29.212,5.252,29.212A9.744,9.744,0,0,1,352.573,123.755Z" fill="#888cd9"/>
  <path id="Path_24" data-name="Path 24" d="M322.835,34.084s-1.517-.254-1.272-2.341.242-4.818-1.456-4.31-1.782,1.87-2.472,1.074-.71-4.137-5.762-4.37-7.1,1.526-9.453.492-2.472-4.586-2.472-4.586a4.074,4.074,0,0,0,1.677,1.672s-3.919-5.359.617-9.035,9.164-1.27,11.791-1.11c5.786.351,9.523.7,11.413,4.494S326.547,30.423,322.835,34.084Z" fill="#2b478b"/>
  <path id="Path_25" data-name="Path 25" d="M351.049,124.653s-1.526,1.591-1.622,2.247c-.308,2.124-1.018,3.041-.675,3.272.74.481,1.717-1.092,2.185-2.5A6.506,6.506,0,0,0,351.049,124.653Z" fill="#ffb27d"/>
  <path id="Path_26" data-name="Path 26" d="M324.995,47.651l-9.887,18.74-5.065-1.843,1.645,5-9.9,29.834S296.316,61.478,324.995,47.651Z" fill="#e1e8f5"/>
  <path id="Path_27" data-name="Path 27" d="M179.558,175.977l31.562-7.33a7.692,7.692,0,0,0,5.739-9.2l-3.171-13.678a7.687,7.687,0,0,0-9.2-5.738l-31.563,7.313a7.691,7.691,0,0,0-5.738,9.2l3.17,13.678a7.687,7.687,0,0,0,9.2,5.755Z" fill="#f99746"/>
  <path id="Path_28" data-name="Path 28" d="M207.673,143.251a7.718,7.718,0,0,0-6.62-2.411,6.679,6.679,0,0,0-.743.132l-6.284,1.456-.683-2.95a2.544,2.544,0,0,0-3.048-1.892l-1.639.378-6.6,1.528-1.182.277a2.544,2.544,0,0,0-1.892,3.047l.686,2.951-10.848,2.513a7.72,7.72,0,0,0-5.762,9.233l3.209,13.837a7.716,7.716,0,0,0,9.221,5.757l31.475-7.3a7.4,7.4,0,0,0,1.577-.554,7.525,7.525,0,0,0,2.1-1.492,7.7,7.7,0,0,0,2.074-7.187l-3.2-13.837A7.641,7.641,0,0,0,207.673,143.251Zm-27.174-.8a.95.95,0,0,1,.118-.716.944.944,0,0,1,.254-.269.934.934,0,0,1,.337-.152l1.4-.331,5.2-1.2,2.837-.658a.96.96,0,0,1,.37-.012.946.946,0,0,1,.768.722l.683,2.951-11.273,2.6Z" fill="#ed7d2b"/>
  <path id="Path_29" data-name="Path 29" d="M186.977,125.449s-.945,3.381-.626,4.459c2.218,7.3,6.05,12.075-4.256,10.843,0,0,.425-.423-1.547-4.137-2.276-4.285-2.239-4.346-.2-7.834l.709-3.981Z" fill="#ffb27d"/>
  <path id="Path_31" data-name="Path 31" d="M156.583,37.269v1.691s.462,5.289-6.052,6.062-11.853.672-11.678-3.41c.586-3.161,1.638-8.067,1.681-10.682a18.244,18.244,0,0,0-.237-3.166l12.622-.253,3.719.608Z" fill="#ffb27d"/>
  <path id="Path_32" data-name="Path 32" d="M156.633,28.118l-.05,9.15a10.693,10.693,0,0,1-4.549,1c-5.8,0-9.55-4.256-11.51-7.341a18.343,18.343,0,0,0-.236-3.166l12.621-.253Z" fill="#e2915a"/>
  <path id="Path_33" data-name="Path 33" d="M139.325,25.733c1.466,7.881,11.635,7.623,16.029,7.126,1.236-.137,2.014-.3,2.014-.3,1.4-.371,2.173-2.568,2.535-5.438.709-5.693-.189-14.052-1.149-16.189-1.45-3.218-4.176-6.7-14.423-4.187S137.45,15.634,139.325,25.733Z" fill="#ffb27d"/>
  <path id="Path_34" data-name="Path 34" d="M131.005,259.066h14.423a35.058,35.058,0,0,0-1.149-5.173,14.721,14.721,0,0,0-.818-2.074c-1.4-2.8-10.3-1.019-10.3-1.019s-.827.71-1.473,3.414A28.875,28.875,0,0,0,131.005,259.066Z" fill="#233862"/>
  <path id="Path_35" data-name="Path 35" d="M174.551,254.519c.04,1.96.286,3.816,1,4.547h28.5c-.364-1.031-1.39-2.582-4.315-3.057-3.324-.537-8.512-2.128-11.533-5.337a8.6,8.6,0,0,1-2.235-4.045c-1.34-5.97-11.086,1.83-11.086,1.83A47.968,47.968,0,0,0,174.551,254.519Z" fill="#233862"/>
  <path id="Path_36" data-name="Path 36" d="M155.593,189.981a44.882,44.882,0,0,1,.709,5.266c.908,17.674,14.879,58.086,17.378,59.027,3.866,1.459,9.954-1.641,13.142-2.657a2.732,2.732,0,0,0,1.917-3.1c-6.921-31.809-9.458-77.612-10.387-104.727a123.593,123.593,0,0,0-2.813-23.1s-34.076-9.091-34.284,2.41C141.087,133.281,152.554,173.194,155.593,189.981Z" fill="#2b478b"/>
  <path id="Path_37" data-name="Path 37" d="M155.593,189.981l22.762-46.193a123.533,123.533,0,0,0-2.814-23.1s-34.076-9.091-34.284,2.41C141.087,133.281,152.554,173.194,155.593,189.981Z" fill="#233862"/>
  <path id="Path_38" data-name="Path 38" d="M163.175,123.143,145.161,253.7s-7.912,1.908-14.064.383c0,0-5.275-69.438-4.835-86.225s-3.783-44.924.965-48.024S163.175,123.143,163.175,123.143Z" fill="#2b478b"/>
  <path id="Path_39" data-name="Path 39" d="M159.146,12.161c-2.813.887-8.762-.019-11.25,1.993s-.118,5.332-2.962,6.516a1.4,1.4,0,0,1-1.634-.409c-.787-.984-1.877-1.962-2.873-1.558-.818.336-.858,1.39-.5,2.417a2.837,2.837,0,0,1-.3,2.579,1.417,1.417,0,0,0-.309,1.04c.236,1.3.881,2.991,1.118,3.856l.066.908s-4.762-5.154-6.767-9.493c-1.378-2.977-1.35-14.1,5.384-17.355a.2.2,0,0,1-.064-.073c-.146-.26-.553-.2-.553-.2a3.037,3.037,0,0,1,1.478-.095.257.257,0,0,1,.1-.118,2.38,2.38,0,0,1,.908-1.348,2.627,2.627,0,0,0-.43,1.064c1.768-.946,7.211-3,11.528-1.121a35.764,35.764,0,0,0,7.413,2.3,3.094,3.094,0,0,1,2.492,3.152C161.908,8.352,161.163,11.426,159.146,12.161Z" fill="#233862"/>
  <path id="Path_40" data-name="Path 40" d="M137.306,43.88l4.149,88.989s34.615.565,33.627-7.268S162.6,46.606,162.6,46.606" fill="#e9f3fe"/>
  <path id="Path_41" data-name="Path 41" d="M148.719,99.623s-1.759,23.77-5.133,38.691c0,0-20.2,1.071-24.994-6.729,0,0,3.783-32.106,3.783-38.62,0-2.289-.177-5.4-.456-8.878-.421-5.27-1.071-11.375-1.691-16.69-.858-7.405-1.655-13.29-1.655-13.29l16.655-13.534Z" fill="#00c9c8"/>
  <path id="Path_42" data-name="Path 42" d="M188.8,127.743a15.486,15.486,0,0,1-9.694,1.567c-2.161,5.3-7.257,7.094-7.257,6.621,0-.057-1.142-10-2.494-21.727q-.2-1.758-.407-3.546c0-.1-.026-.206-.035-.308-.237-1.962-.457-3.948-.686-5.927-1.624-14.116-3.187-27.65-3.187-27.65-3.547-21.684-6.54-36.015-6.54-36.015,7.566.787,12.654,3.478,14.69,7,6.032,10.453,10.4,36.6,12.957,56.174a.415.415,0,0,0,.019.151c.442,3.379.83,6.559,1.158,9.427.022.18.043.357.062.53C188.318,122.236,188.8,127.743,188.8,127.743Z" fill="#00c9c8"/>
  <path id="Path_43" data-name="Path 43" d="M153.765,27.019s.331,1.017,2.9.646c0,0,2.154-.312,1.993-1.445A7.188,7.188,0,0,0,153.765,27.019Z" fill="#fff"/>
  <path id="Path_44" data-name="Path 44" d="M136.327,40.465c-.043-.851,3.979-2.024,3.979-2.024s4.6,6.384,12.189,6.5c0,0-2.161,4.206-4.708,5.3C147.787,50.233,136.575,45.509,136.327,40.465Z" fill="#d9e9f9"/>
  <path id="Path_45" data-name="Path 45" d="M152.495,44.788s4.02-2.383,4.034-4.965c0,0,2.6-.326,3.728.946,0,0,.946,4.426-.309,7C159.948,47.753,154.16,46.88,152.495,44.788Z" fill="#d9e9f9"/>
  <path id="Path_46" data-name="Path 46" d="M149.769,44.405l5.439-1.308a.825.825,0,0,1,.692.946c-.016.884-1.534,3.48-2.206,3.688S148.481,46.2,149.769,44.405Z" fill="#ba4c43"/>
  <path id="Path_47" data-name="Path 47" d="M136.961,40.023c-.042-.849,2.682-2.6,2.682-2.6s5.268,6.159,12.853,6.268c0,0-2.162,4.209-4.708,5.3C147.788,48.994,137.214,45.069,136.961,40.023Z" fill="#e9f3fe"/>
  <path id="Path_48" data-name="Path 48" d="M152.495,43.7s4.065-2.154,4.079-4.729a12.932,12.932,0,0,1,3.587,2.338,7.462,7.462,0,0,1-.213,5.365C159.948,46.663,154.16,45.781,152.495,43.7Z" fill="#e9f3fe"/>
  <path id="Path_49" data-name="Path 49" d="M162.458,118.316a11.561,11.561,0,0,1-2.742,6.691l-2.44,2.755a1.247,1.247,0,0,1-1.082.466,1.244,1.244,0,0,1-.987-.644l-2.946-4.622a7.119,7.119,0,0,1-1.015-4.4c.315-3.528.9-10.323,1.381-16.882.393-5.315.71-10.477.764-13.614.163-10.023-1.149-41.956-1.149-41.956l1.958.1A147.585,147.585,0,0,1,161.333,75.4c.589,4.147,1.031,8.564,1.227,13.139C162.56,88.543,163.4,106.782,162.458,118.316Z" fill="#40717c"/>
  <path id="Path_50" data-name="Path 50" d="M162.458,118.316a11.561,11.561,0,0,1-2.742,6.691l-2.44,2.755a1.247,1.247,0,0,1-1.657.268,1.233,1.233,0,0,1-.412-.446l-2.946-4.622a7.119,7.119,0,0,1-1.015-4.4c.315-3.528.9-10.323,1.381-16.882,5.488-7.524,7.782-17.856,8.706-26.276.589,4.147,1.031,8.564,1.227,13.139C162.56,88.543,163.4,106.782,162.458,118.316Z" fill="#2b5660"/>
  <path id="Path_51" data-name="Path 51" d="M139.642,37.423s10.787,45.186,9.07,62.207c0,0-3.967-18.189-13.512-33.09,0,0,3.485-3.062,3.3-4.192a11.947,11.947,0,0,0-5.1-.251s.277-19.478,1.842-21.535A11.422,11.422,0,0,1,139.642,37.423Z" fill="#00adac"/>
  <path id="Path_52" data-name="Path 52" d="M156.574,38.959c-1.617.13,10.692,44.155,11.6,58.266,0,0-1.08-25.181-.974-32.44,0,0-4.492-2.364-4.492-3.2s4.781-3.074,4.781-3.074S164.466,43,162.814,41.293,156.574,38.959,156.574,38.959Z" fill="#00adac"/>
  <path id="Path_53" data-name="Path 53" d="M179.1,131.1s-.747,1.011-.272,3.546.213,3.942.871,3.5,2.014-3.488,2.014-3.488Z" fill="#ffb27d"/>
  <path id="Path_54" data-name="Path 54" d="M147.4,106.586c-12.56-1.875-20.958-13.612-25.47-22.5-.421-5.27-1.071-11.375-1.69-16.69l2.939-8.387Z" fill="#00adac"/>
  <g id="l-hand">
    <path id="Path_55" data-name="Path 55" d="M187.377,114.029a42.361,42.361,0,0,1-18.031.17q-.2-1.759-.406-3.546c0-.1-.026-.206-.036-.308q.39-1.53.783-3.057c4.492,1.608,14.539,5.133,17.629,6.221C187.34,113.684,187.358,113.861,187.377,114.029Z" fill="#233862"/>
    <g id="Group_2" data-name="Group 2">
      <path id="Path_30" data-name="Path 30" d="M199.944,116.758c-3.111-.187-6.9-1-8.275-2.646a7.645,7.645,0,0,0-3.133-2.364l.473-2.038.572-2.433s.187-.215.825-.18c0,0,2.44.551,3.346-.149s2.563-.274,3.582.4c1.3.861,3.05.71,3.005,1.145,0,0-2.57,1.262-2.331,1.475,2.364,2.093,8.559,2.923,8.157,4.556C206,115.169,201.271,116.838,199.944,116.758Z" fill="#ffb27d"/>
      <path id="Path_56" data-name="Path 56" d="M135.242,40.567s-11.037,1.395-16.078,8.427,5.781,45.328,28.231,57.592c10.8,5.911,41.964,7.228,41.964,7.228s1.712.17,2.393-3.277a13.848,13.848,0,0,0,0-3.253s-35.467-13.3-38.592-15.863S135.242,40.567,135.242,40.567Z" fill="#00c9c8"/>
      <path id="Path_57" data-name="Path 57" d="M205.051,107.378s-3.71-.931-4.773-1.156c-1.242-.262-2.379-1.2-2.741-.756-.674.818,2.166,2.255,3.287,4.783.551,1.241,1.655,1.915,3.877,1C205.82,110.795,206.709,108.475,205.051,107.378Z" fill="#e2915a"/>
    </g>
  </g>
  <path id="Path_58" data-name="Path 58" d="M129.412,266.2h18.02A35.463,35.463,0,0,0,146,260.434a15.5,15.5,0,0,0-1.022-2.31c-1.749-3.118-12.871-1.135-12.871-1.135s-1.034.79-1.84,3.8A28.841,28.841,0,0,0,129.412,266.2Z" fill="#031d51"/>
</svg>
