<svg width="21" height="23" viewBox="0 0 21 23" fill="none" xmlns="http://www.w3.org/2000/svg">
<path d="M12.9841 17.7225C13.2624 16.7946 13.8192 15.9596 14.5615 15.31C15.9532 14.1502 16.8347 12.3873 16.8347 10.4388C16.8347 6.82014 13.8192 3.85099 10.1077 4.03657C6.81382 4.17575 4.12302 6.95932 4.03025 10.2532C3.98384 12.2945 4.86532 14.1038 6.30351 15.31C7.09218 15.9595 7.64889 16.7946 7.92725 17.7225H12.9841Z" fill="#FFD15C"/>
<path d="M9.82897 17.8154H10.2465L8.39078 10.9029C8.43718 10.9029 8.48355 10.9029 8.52996 10.9029C8.76191 10.9029 8.9939 10.8102 9.17944 10.6246C9.27221 10.5318 9.36503 10.4854 9.50421 10.4854C9.64338 10.4854 9.73615 10.5318 9.82897 10.6246C10.1537 10.9957 10.7104 10.9957 11.0352 10.6246C11.1279 10.5318 11.2208 10.4854 11.3599 10.4854C11.4527 10.4854 11.5919 10.5318 11.6847 10.6246C11.8703 10.8102 12.0558 10.9029 12.3342 10.9029C12.3806 10.9029 12.427 10.9029 12.4734 10.9029L10.664 17.8154H11.0816L12.9837 10.5782C12.9837 10.4854 12.9837 10.3926 12.8909 10.3462C12.7981 10.2998 12.7053 10.3462 12.6589 10.3926C12.5662 10.4854 12.4734 10.5318 12.3806 10.5318C12.2414 10.5318 12.1486 10.4854 12.0095 10.3926C11.8239 10.207 11.6383 10.1143 11.4063 10.1143C11.1743 10.1143 10.9888 10.207 10.8032 10.3926C10.6176 10.5782 10.3393 10.5782 10.1537 10.3926C10.0146 10.207 9.78261 10.1143 9.55061 10.1143C9.31866 10.1143 9.08667 10.207 8.94749 10.3926C8.85472 10.4854 8.71554 10.5318 8.57636 10.5318C8.48359 10.5318 8.34441 10.4854 8.29801 10.3926C8.2516 10.3462 8.15883 10.2998 8.06606 10.3462C7.97329 10.3926 7.92688 10.4854 7.97328 10.5782L9.82897 17.8154Z" fill="white"/>
<path d="M8.99512 21.9902C9.22711 22.5469 9.78382 22.9645 10.4333 22.9645C11.0828 22.9645 11.6395 22.5469 11.8715 21.9902H8.99512Z" fill="#344A5E"/>
<path d="M12.1495 22.0367H8.76281C8.29886 22.0367 7.92773 21.6656 7.92773 21.2017V17.6758H12.9846V21.2017C12.9846 21.6656 12.6134 22.0367 12.1495 22.0367Z" fill="#344A5E"/>
<path d="M12.9377 19.4393H7.92724C7.64888 19.4393 7.41693 19.2074 7.41693 18.929C7.41693 18.6507 7.64888 18.4187 7.92724 18.4187H12.9377C13.216 18.4187 13.448 18.6507 13.448 18.929C13.448 19.2074 13.216 19.4393 12.9377 19.4393Z" fill="#415A6B"/>
<path d="M12.9377 21.0633H7.92724C7.64888 21.0633 7.41693 20.8314 7.41693 20.553C7.41693 20.2747 7.64888 20.0427 7.92724 20.0427H12.9377C13.216 20.0427 13.448 20.2747 13.448 20.553C13.448 20.8313 13.216 21.0633 12.9377 21.0633Z" fill="#415A6B"/>
<path d="M10.4325 0.696533C10.2005 0.696533 9.96854 0.882119 9.96854 1.16048V2.73785C9.96854 2.9698 10.1541 3.20179 10.4325 3.20179C10.7108 3.20179 10.8964 3.0162 10.8964 2.73785V1.16048C10.8964 0.882119 10.6644 0.696533 10.4325 0.696533Z" fill="#FFD15C"/>
<path d="M4.21542 3.52688C4.02983 3.3413 3.75147 3.3413 3.56593 3.52688C3.38039 3.71247 3.38035 3.99083 3.56593 4.17637L4.67936 5.2898C4.86495 5.47538 5.1433 5.47538 5.32884 5.2898C5.51439 5.10421 5.51443 4.82586 5.32884 4.64031L4.21542 3.52688Z" fill="#FFD15C"/>
<path d="M2.77764 9.92871H1.20027C0.968321 9.92871 0.736328 10.1143 0.736328 10.3927C0.736328 10.6246 0.921914 10.8566 1.20027 10.8566H2.77764C3.00959 10.8566 3.24159 10.671 3.24159 10.3927C3.24159 10.1607 3.00959 9.92871 2.77764 9.92871Z" fill="#FFD15C"/>
<path d="M4.67938 15.4956L3.56595 16.609C3.38036 16.7946 3.38036 17.073 3.56595 17.2585C3.75153 17.4441 4.02989 17.4441 4.21543 17.2585L5.32886 16.1451C5.51445 15.9595 5.51445 15.6812 5.32886 15.4956C5.14327 15.3101 4.86496 15.31 4.67938 15.4956Z" fill="#FFD15C"/>
<path d="M16.1852 15.4956C15.9996 15.31 15.7213 15.31 15.5357 15.4956C15.3501 15.6812 15.3501 15.9596 15.5357 16.1451L16.6491 17.2585C16.8347 17.4441 17.113 17.4441 17.2986 17.2585C17.4841 17.073 17.4842 16.7946 17.2986 16.6091L16.1852 15.4956Z" fill="#FFD15C"/>
<path d="M19.6644 9.92871H18.087C17.855 9.92871 17.623 10.1143 17.623 10.3927C17.623 10.6246 17.8086 10.8566 18.087 10.8566H19.6644C19.8963 10.8566 20.1283 10.671 20.1283 10.3927C20.1283 10.1607 19.9427 9.92871 19.6644 9.92871Z" fill="#FFD15C"/>
<path d="M16.6491 3.52687L15.5357 4.6403C15.3501 4.82588 15.3501 5.10424 15.5357 5.28978C15.7213 5.47537 15.9996 5.47537 16.1852 5.28978L17.2986 4.17635C17.4842 3.99077 17.4842 3.71241 17.2986 3.52687C17.113 3.34133 16.8347 3.34128 16.6491 3.52687Z" fill="#FFD15C"/>
</svg>
