<svg width="20" height="22" viewBox="0 0 20 22" fill="none" xmlns="http://www.w3.org/2000/svg">
<path fill-rule="evenodd" clip-rule="evenodd" d="M7.38566 1.71033L9.69795 2.85306C9.87934 2.94294 10.0795 2.98974 10.2824 2.98974C10.4854 2.98974 10.6855 2.94294 10.8669 2.85306L13.1792 1.71033L15.4928 2.85306C15.6742 2.94294 15.8743 2.98974 16.0773 2.98974C16.2802 2.98974 16.4803 2.94294 16.6617 2.85306L18.3007 2.0429V19.9249L16.6617 19.1147C16.4803 19.0249 16.2802 18.9781 16.0773 18.9781C15.8743 18.9781 15.6742 19.0249 15.4928 19.1147L13.1792 20.2575L10.8669 19.1147C10.6855 19.0249 10.4854 18.9781 10.2824 18.9781C10.0795 18.9781 9.87934 19.0249 9.69795 19.1147L7.38566 20.2575L5.07202 19.1147C4.89063 19.0249 4.69049 18.9781 4.48756 18.9781C4.28462 18.9781 4.08448 19.0249 3.90309 19.1147L2.26415 19.9249V2.0429L3.90309 2.85306C4.08448 2.94294 4.28462 2.98974 4.48756 2.98974C4.69049 2.98974 4.89063 2.94294 5.07202 2.85306L7.38566 1.71033ZM4.4916 1.65445L2.81361 0.825671C2.6146 0.728449 2.39379 0.682936 2.17203 0.693428C1.95027 0.703921 1.73487 0.770072 1.54618 0.885636C1.35749 1.0012 1.20173 1.16236 1.0936 1.35391C0.98548 1.54546 0.928562 1.76107 0.928223 1.98038V19.9874C0.928562 20.2067 0.98548 20.4224 1.0936 20.6139C1.20173 20.8054 1.35749 20.9666 1.54618 21.0822C1.73487 21.1977 1.95027 21.2639 2.17203 21.2744C2.39379 21.2849 2.6146 21.2394 2.81361 21.1421L4.4916 20.3134L6.80523 21.4561C6.98681 21.5454 7.18687 21.5918 7.3897 21.5918C7.59253 21.5918 7.79259 21.5454 7.97417 21.4561L10.2824 20.3134L12.5947 21.4561C12.7763 21.5454 12.9763 21.5918 13.1792 21.5918C13.382 21.5918 13.5821 21.5454 13.7636 21.4561L16.0773 20.3134L17.7553 21.1421C17.9543 21.2394 18.1751 21.2849 18.3968 21.2744C18.6186 21.2639 18.834 21.1977 19.0227 21.0822C19.2114 20.9666 19.3671 20.8054 19.4753 20.6139C19.5834 20.4224 19.6403 20.2067 19.6406 19.9874V1.98038C19.6403 1.76107 19.5834 1.54546 19.4753 1.35391C19.3671 1.16236 19.2114 1.0012 19.0227 0.885636C18.834 0.770072 18.6186 0.703921 18.3968 0.693428C18.1751 0.682936 17.9543 0.728449 17.7553 0.825671L16.0732 1.65445L13.7596 0.511718C13.578 0.422441 13.378 0.375977 13.1751 0.375977C12.9723 0.375977 12.7722 0.422441 12.5907 0.511718L10.2824 1.65445L7.97013 0.511718C7.78855 0.422441 7.58849 0.375977 7.38566 0.375977C7.18283 0.375977 6.98277 0.422441 6.80119 0.511718L4.4916 1.65445Z" fill="#079BF2"/>
<path fill-rule="evenodd" clip-rule="evenodd" d="M7.1119 7.53163L9.77736 10.1647C9.84364 10.2303 9.92237 10.2824 10.009 10.3179C10.0957 10.3534 10.1886 10.3717 10.2825 10.3717C10.3763 10.3717 10.4693 10.3534 10.5559 10.3179C10.6426 10.2824 10.7213 10.2303 10.7876 10.1647L14.783 6.21794C14.9129 6.08502 14.9848 5.90699 14.9832 5.72221C14.9816 5.53742 14.9066 5.36065 14.7743 5.22998C14.642 5.09931 14.463 5.02519 14.276 5.02359C14.0889 5.02198 13.9087 5.09302 13.7741 5.2214L10.2825 8.67054L8.12072 6.53509C7.98616 6.40671 7.80594 6.33567 7.61888 6.33728C7.43181 6.33888 7.25287 6.413 7.12059 6.54367C6.98831 6.67434 6.91327 6.85111 6.91165 7.0359C6.91002 7.22069 6.98193 7.39871 7.1119 7.53163Z" fill="#079BF2"/>
<path fill-rule="evenodd" clip-rule="evenodd" d="M7.6158 13.0052H12.9496C13.1388 13.0052 13.3203 12.931 13.4541 12.7988C13.5879 12.6667 13.663 12.4874 13.663 12.3005C13.663 12.1136 13.5879 11.9343 13.4541 11.8021C13.3203 11.67 13.1388 11.5957 12.9496 11.5957H7.6158C7.42658 11.5957 7.24511 11.67 7.11131 11.8021C6.97751 11.9343 6.90234 12.1136 6.90234 12.3005C6.90234 12.4874 6.97751 12.6667 7.11131 12.7988C7.24511 12.931 7.42658 13.0052 7.6158 13.0052Z" fill="#079BF2"/>
<path fill-rule="evenodd" clip-rule="evenodd" d="M7.6158 15.6351H12.9496C13.1388 15.6351 13.3203 15.5609 13.4541 15.4287C13.5879 15.2965 13.663 15.1173 13.663 14.9304C13.663 14.7434 13.5879 14.5642 13.4541 14.432C13.3203 14.2998 13.1388 14.2256 12.9496 14.2256H7.6158C7.42658 14.2256 7.24511 14.2998 7.11131 14.432C6.97751 14.5642 6.90234 14.7434 6.90234 14.9304C6.90234 15.1173 6.97751 15.2965 7.11131 15.4287C7.24511 15.5609 7.42658 15.6351 7.6158 15.6351Z" fill="#079BF2"/>
</svg>
