<svg width="29" height="29" viewBox="0 0 29 29" fill="none" xmlns="http://www.w3.org/2000/svg">
<g filter="url(#filter0_d_10_1199)">
<path d="M9.58458 11.7782H5.42896C5.04645 11.7782 4.73636 12.0883 4.73636 12.4708V19.3968C4.73636 19.7793 5.04645 20.0894 5.42896 20.0894H9.58458C9.96709 20.0894 10.2772 19.7793 10.2772 19.3968V12.4708C10.2772 12.0883 9.96709 11.7782 9.58458 11.7782Z" fill="#016146"/>
<path d="M23.436 6.2373H19.2803C18.8978 6.2373 18.5877 6.54739 18.5877 6.92991V19.3968C18.5877 19.7793 18.8978 20.0894 19.2803 20.0894H23.436C23.8185 20.0894 24.1286 19.7793 24.1286 19.3968V6.92991C24.1286 6.54739 23.8185 6.2373 23.436 6.2373Z" fill="#0D7A5C"/>
<path d="M16.5111 0.696411H12.3554C11.9729 0.696411 11.6628 1.0065 11.6628 1.38901V19.3967C11.6628 19.7792 11.9729 20.0893 12.3554 20.0893H16.5111C16.8936 20.0893 17.2037 19.7792 17.2037 19.3967V1.38901C17.2037 1.0065 16.8936 0.696411 16.5111 0.696411Z" fill="#53CD9F"/>
</g>
<defs>
<filter id="filter0_d_10_1199" x="0.736359" y="0.696411" width="27.3922" height="27.3931" filterUnits="userSpaceOnUse" color-interpolation-filters="sRGB">
<feFlood flood-opacity="0" result="BackgroundImageFix"/>
<feColorMatrix in="SourceAlpha" type="matrix" values="0 0 0 0 0 0 0 0 0 0 0 0 0 0 0 0 0 0 127 0" result="hardAlpha"/>
<feOffset dy="4"/>
<feGaussianBlur stdDeviation="2"/>
<feComposite in2="hardAlpha" operator="out"/>
<feColorMatrix type="matrix" values="0 0 0 0 0 0 0 0 0 0 0 0 0 0 0 0 0 0 0.25 0"/>
<feBlend mode="normal" in2="BackgroundImageFix" result="effect1_dropShadow_10_1199"/>
<feBlend mode="normal" in="SourceGraphic" in2="effect1_dropShadow_10_1199" result="shape"/>
</filter>
</defs>
</svg>
