<svg width="30" height="31" viewBox="0 0 30 31" fill="none" xmlns="http://www.w3.org/2000/svg">
<g filter="url(#filter0_d_10_1190)">
<path d="M18.2361 7.56213V4.99563C18.2361 2.51927 16.221 0.50415 13.7447 0.50415H8.61166C6.1353 0.50415 4.12018 2.51927 4.12018 4.99563V8.84542C4.12018 10.395 5.22425 11.6908 6.68669 11.9891V13.9786C6.68669 14.238 6.84272 14.4723 7.08269 14.5714C7.31912 14.67 7.59673 14.6175 7.78194 14.4322L10.1605 12.0537H13.7446C16.221 12.0536 18.2361 10.0384 18.2361 7.56213ZM8.61166 6.92067C8.25733 6.92067 7.97005 6.63338 7.97005 6.27906C7.97005 5.92467 8.25733 5.63745 8.61166 5.63745C8.96598 5.63745 9.25326 5.92467 9.25326 6.27906C9.25326 6.63338 8.96598 6.92067 8.61166 6.92067ZM11.1782 6.92067C10.8238 6.92067 10.5366 6.63338 10.5366 6.27906C10.5366 5.92467 10.8238 5.63745 11.1782 5.63745C11.5325 5.63745 11.8198 5.92467 11.8198 6.27906C11.8198 6.63338 11.5325 6.92067 11.1782 6.92067ZM13.7447 6.92067C13.3903 6.92067 13.1031 6.63338 13.1031 6.27906C13.1031 5.92467 13.3903 5.63745 13.7447 5.63745C14.099 5.63745 14.3863 5.92467 14.3863 6.27906C14.3863 6.63338 14.0991 6.92067 13.7447 6.92067ZM25.2941 8.20374H19.4546C19.1546 10.8698 17.0523 12.972 14.3863 13.272V19.7532C14.3863 20.1079 14.6733 20.3948 15.028 20.3948H20.537L22.2739 22.1317C22.4589 22.3167 22.7365 22.3696 22.9732 22.2708C23.2131 22.1718 23.3692 21.9374 23.3692 21.678V20.3947H25.2941C25.6487 20.3947 25.9357 20.1077 25.9357 19.7531V8.84535C25.9357 8.49074 25.6487 8.20374 25.2941 8.20374ZM20.161 17.8284C19.8067 17.8284 19.5194 17.5412 19.5194 17.1868C19.5194 16.8324 19.8067 16.5452 20.161 16.5452C20.5154 16.5452 20.8027 16.8324 20.8027 17.1868C20.8027 17.5412 20.5154 17.8284 20.161 17.8284ZM20.8741 14.4842L20.8027 14.6201C20.8027 14.9748 20.5157 15.2617 20.161 15.2617C19.8064 15.2617 19.5194 14.9747 19.5194 14.6201C19.5194 14.013 19.8647 13.5041 20.3991 13.2918C20.6435 13.1939 20.8027 12.9596 20.8027 12.6952C20.8027 12.3412 20.5151 12.0536 20.161 12.0536C19.807 12.0536 19.5194 12.3412 19.5194 12.6952C19.5194 13.0499 19.2324 13.3368 18.8778 13.3368C18.5231 13.3368 18.2362 13.0498 18.2362 12.6952C18.2362 11.6338 19.0997 10.7703 20.1611 10.7703C21.2226 10.7703 22.086 11.6338 22.086 12.6952C22.0859 13.4879 21.6103 14.1902 20.8741 14.4842Z" fill="url(#paint0_linear_10_1190)"/>
</g>
<defs>
<filter id="filter0_d_10_1190" x="0.120178" y="0.50415" width="29.8155" height="29.8157" filterUnits="userSpaceOnUse" color-interpolation-filters="sRGB">
<feFlood flood-opacity="0" result="BackgroundImageFix"/>
<feColorMatrix in="SourceAlpha" type="matrix" values="0 0 0 0 0 0 0 0 0 0 0 0 0 0 0 0 0 0 127 0" result="hardAlpha"/>
<feOffset dy="4"/>
<feGaussianBlur stdDeviation="2"/>
<feComposite in2="hardAlpha" operator="out"/>
<feColorMatrix type="matrix" values="0 0 0 0 0 0 0 0 0 0 0 0 0 0 0 0 0 0 0.25 0"/>
<feBlend mode="normal" in2="BackgroundImageFix" result="effect1_dropShadow_10_1190"/>
<feBlend mode="normal" in="SourceGraphic" in2="effect1_dropShadow_10_1190" result="shape"/>
</filter>
<linearGradient id="paint0_linear_10_1190" x1="15.028" y1="0.50415" x2="15.028" y2="22.3198" gradientUnits="userSpaceOnUse">
<stop stop-color="#A93AFF"/>
<stop offset="1" stop-color="#FF81FF"/>
</linearGradient>
</defs>
</svg>
